HIERARCHY
ROOT Hips
{
	OFFSET 0.000000 0.000000 0.000000
	CHANNELS 6 Xposition Yposition Zposition Zrotation Yrotation Xrotation 
	JOINT LHipJoint
	{
		OFFSET 0.000000 0.000000 0.000000
		CHANNELS 3 Zrotation Yrotation Xrotation
		JOINT LeftUpLeg
		{
			OFFSET 1.363060 -1.794630 0.839290
			CHANNELS 3 Zrotation Yrotation Xrotation
			JOINT LeftLeg
			{
				OFFSET 2.448110 -6.726130 0.000000
				CHANNELS 3 Zrotation Yrotation Xrotation
				JOINT LeftFoot
				{
					OFFSET 2.562200 -7.039590 0.000000
					CHANNELS 3 Zrotation Yrotation Xrotation
					JOINT LeftToeBase
					{
						OFFSET 0.157640 -0.433110 2.322550
						CHANNELS 3 Zrotation Yrotation Xrotation
						End Site
						{
							OFFSET 0.000000 0.000000 0.000000
						}
					}
				}
			}
		}
	}
	JOINT RHipJoint
	{
		OFFSET 0.000000 0.000000 0.000000
		CHANNELS 3 Zrotation Yrotation Xrotation
		JOINT RightUpLeg
		{
			OFFSET -1.305520 -1.794630 0.839290
			CHANNELS 3 Zrotation Yrotation Xrotation
			JOINT RightLeg
			{
				OFFSET -2.542530 -6.985550 0.000000
				CHANNELS 3 Zrotation Yrotation Xrotation
				JOINT RightFoot
				{
					OFFSET -2.568260 -7.056230 0.000000
					CHANNELS 3 Zrotation Yrotation Xrotation
					JOINT RightToeBase
					{
						OFFSET -0.164730 -0.452590 2.363150
						CHANNELS 3 Zrotation Yrotation Xrotation
						End Site
						{
							OFFSET 0.000000 0.000000 0.000000
						}
					}
				}
			}
		}
	}
	JOINT LowerBack
	{
		OFFSET 0.000000 0.000000 0.000000
		CHANNELS 3 Zrotation Yrotation Xrotation
		JOINT Spine
		{
			OFFSET 0.028270 2.035590 -0.193380
			CHANNELS 3 Zrotation Yrotation Xrotation
			JOINT Spine1
			{
				OFFSET 0.056720 2.048850 -0.042750
				CHANNELS 3 Zrotation Yrotation Xrotation
				JOINT Neck
				{
					OFFSET 0.000000 0.000000 0.000000
					CHANNELS 3 Zrotation Yrotation Xrotation
					JOINT Neck1
					{
						OFFSET -0.054170 1.746240 0.172020
						CHANNELS 3 Zrotation Yrotation Xrotation
						JOINT Head
						{
							OFFSET 0.104070 1.761360 -0.123970
							CHANNELS 3 Zrotation Yrotation Xrotation
							End Site
							{
								OFFSET 0.000000 0.000000 0.000000
							}
						}
					}
				}
				JOINT LeftShoulder
				{
					OFFSET 0.000000 0.000000 0.000000
					CHANNELS 3 Zrotation Yrotation Xrotation
					JOINT LeftArm
					{
						OFFSET 3.362410 1.200890 -0.311210
						CHANNELS 3 Zrotation Yrotation Xrotation
						JOINT LeftForeArm
						{
							OFFSET 4.983000 -0.000000 -0.000000
							CHANNELS 3 Zrotation Yrotation Xrotation
							JOINT LeftHand
							{
								OFFSET 3.483560 -0.000000 -0.000000
								CHANNELS 3 Zrotation Yrotation Xrotation
								JOINT LeftFingerBase
								{
									OFFSET 0.000000 0.000000 0.000000
									CHANNELS 3 Zrotation Yrotation Xrotation
									JOINT LeftHandIndex1
									{
										OFFSET 0.715260 -0.000000 -0.000000
										CHANNELS 3 Zrotation Yrotation Xrotation
										End Site
										{
											OFFSET 0.000000 0.000000 0.000000
										}
									}
								}
								JOINT LThumb
								{
									OFFSET 0.000000 0.000000 0.000000
									CHANNELS 3 Zrotation Yrotation Xrotation
									End Site
									{
										OFFSET 0.000000 0.000000 0.000000
									}
								}
							}
						}
					}
				}
				JOINT RightShoulder
				{
					OFFSET 0.000000 0.000000 0.000000
					CHANNELS 3 Zrotation Yrotation Xrotation
					JOINT RightArm
					{
						OFFSET -3.136600 1.374050 -0.404650
						CHANNELS 3 Zrotation Yrotation Xrotation
						JOINT RightForeArm
						{
							OFFSET -5.241900 -0.000000 -0.000000
							CHANNELS 3 Zrotation Yrotation Xrotation
							JOINT RightHand
							{
								OFFSET -3.444170 -0.000000 -0.000000
								CHANNELS 3 Zrotation Yrotation Xrotation
								JOINT RightFingerBase
								{
									OFFSET 0.000000 0.000000 0.000000
									CHANNELS 3 Zrotation Yrotation Xrotation
									JOINT RightHandIndex1
									{
										OFFSET -0.622530 -0.000000 -0.000000
										CHANNELS 3 Zrotation Yrotation Xrotation
										End Site
										{
											OFFSET 0.000000 0.000000 0.000000
										}
									}
								}
								JOINT RThumb
								{
									OFFSET 0.000000 0.000000 0.000000
									CHANNELS 3 Zrotation Yrotation Xrotation
									End Site
									{
										OFFSET 0.000000 0.000000 0.000000
									}
								}
							}
						}
					}
				}
			}
		}
	}
}
MOTION
Frames: 8
Frame Time: 0.016667
-1.706351 17.068443 23.531883 0.622717 0.783631 3.206648 -19.672910 -12.040002 -20.139173 7.003900 -1.322703 -19.026183 -5.576030 13.713551 19.720806 1.922801 20.204779 39.948326 0.000000 0.000000 0.000000 17.375950 1.577173 1.321130 -2.680057 1.380176 -6.151327 2.377946 -20.708107 51.455782 18.529265 -40.039779 20.791590 0.000000 0.000000 0.000000 1.670975 6.012379 16.629778 -9.062540 1.704732 -35.742339 -0.212962 6.151668 6.676398 -2.300455 2.087563 -16.735066 3.822275 -0.042786 7.634774 0.000000 0.000000 0.000000 3.690951 11.052485 24.058760 -53.637277 9.482321 10.931635 -39.179453 -49.802505 0.005138 1.383719 1.149251 0.002631 1.381588 1.149269 0.000000 0.000000 0.000000 0.000000 0.000000 0.000000 0.000000 0.769091 -14.708096 19.449175 66.959474 -3.073416 -11.824167 -2.571188 57.809396 -0.169054 -1.497372 0.301634 -0.084714 -1.503333 0.299988 0.000000 0.000000 0.000000 0.000000 0.000000 0.000000 0.000000 
-1.717135 17.094313 23.723407 0.800476 0.459791 3.235102 -19.471731 -11.970686 -20.150445 6.942008 -1.304833 -19.076943 -5.553722 14.212332 21.057706 1.702957 19.669492 38.464541 0.000000 0.000000 0.000000 17.571792 1.561140 1.607804 -2.914316 1.241915 -6.086426 2.072260 -20.219681 51.414268 18.510827 -41.391017 22.193287 0.000000 0.000000 0.000000 1.470030 5.987509 16.428471 -9.031990 1.651479 -35.620389 -0.292934 6.054215 6.508918 -2.381172 2.108410 -16.629735 3.933236 -0.042815 7.714328 0.000000 0.000000 0.000000 3.543373 10.909315 23.825261 -53.877494 9.386561 10.292088 -39.283926 -48.515017 0.012447 1.346698 1.264620 0.006288 1.344402 1.264638 0.000000 0.000000 0.000000 0.000000 0.000000 0.000000 0.000000 0.870779 -14.527216 19.555047 67.157643 -2.978364 -11.811042 -2.425165 56.799485 -0.159642 -1.412031 0.261739 -0.079990 -1.417542 0.260236 0.000000 0.000000 0.000000 0.000000 0.000000 0.000000 0.000000 
-1.725463 17.120652 23.913405 1.014646 0.241236 3.241110 -19.085569 -11.644607 -20.169537 6.854877 -1.129131 -19.182214 -6.342990 14.792061 22.200120 1.542476 19.439080 37.210366 0.000000 0.000000 0.000000 17.689480 1.426825 1.943716 -3.121617 1.110059 -6.057800 1.823084 -19.705190 51.324458 18.402883 -42.586876 23.554717 0.000000 0.000000 0.000000 1.234962 5.910065 16.188201 -8.994636 1.574836 -35.465908 -0.351965 5.930247 6.336248 -2.451971 2.126326 -16.485354 4.029077 -0.043751 7.789049 0.000000 0.000000 0.000000 3.374034 10.778632 23.596295 -54.157354 9.297192 9.568425 -39.196443 -47.246921 0.018122 1.324406 1.399679 0.009126 1.322008 1.399713 0.000000 0.000000 0.000000 0.000000 0.000000 0.000000 0.000000 0.995153 -14.377245 19.644495 67.287957 -2.914172 -11.800347 -2.385733 55.685380 -0.150858 -1.324630 0.211074 -0.075581 -1.329712 0.209699 0.000000 0.000000 0.000000 0.000000 0.000000 0.000000 0.000000 
-1.731712 17.146814 24.102033 1.204718 -0.042671 3.249762 -18.729212 -11.337791 -20.153516 6.731500 -1.007594 -19.270596 -6.902851 15.314186 23.298893 1.384636 19.197262 35.975852 0.000000 0.000000 0.000000 17.824721 1.300932 2.320740 -3.329958 1.036125 -6.033931 1.594871 -19.153733 51.204879 18.209466 -43.614149 24.890939 0.000000 0.000000 0.000000 0.975912 5.826244 15.901084 -8.868547 1.529157 -35.326791 -0.412332 5.830284 6.197428 -2.505481 2.149554 -16.320823 4.119940 -0.043337 7.850878 0.000000 0.000000 0.000000 3.214530 10.700864 23.395706 -54.483912 9.234977 8.853234 -38.965020 -46.080663 0.022570 1.309274 1.518118 0.011350 1.306824 1.518175 0.000000 0.000000 0.000000 0.000000 0.000000 0.000000 0.000000 1.101265 -14.269773 19.735950 67.352288 -2.900117 -11.764491 -2.377751 54.495543 -0.143210 -1.245111 0.161591 -0.071743 -1.249815 0.160326 -0.000000 0.000000 0.000000 0.000000 0.000000 0.000000 0.000000 
-1.735348 17.172335 24.289359 1.364733 -0.402715 3.261963 -18.423781 -11.072050 -20.102092 6.563619 -0.959366 -19.338082 -7.137827 15.770577 24.378093 1.219873 18.900448 34.707596 0.000000 0.000000 0.000000 17.983069 1.196081 2.740861 -3.539344 1.032566 -6.010751 1.384289 -18.567034 51.059230 17.937737 -44.471115 26.217456 0.000000 0.000000 0.000000 0.697940 5.739426 15.564364 -8.649796 1.517185 -35.202045 -0.475079 5.757624 6.091228 -2.543467 2.178499 -16.135393 4.207102 -0.041488 7.900200 0.000000 0.000000 0.000000 3.067068 10.679026 23.222256 -54.857094 9.199307 8.148035 -38.604086 -45.012631 0.025980 1.297929 1.622355 0.013053 1.295468 1.622437 0.000000 0.000000 0.000000 0.000000 0.000000 0.000000 0.000000 1.188537 -14.206599 19.826308 67.343246 -2.937106 -11.697515 -2.400821 53.222817 -0.136568 -1.172561 0.112707 -0.068409 -1.176932 0.111536 -0.000000 0.000000 0.000000 0.000000 0.000000 0.000000 0.000000 
-1.735775 17.197190 24.473184 1.509495 -0.820522 3.287428 -18.155751 -10.808911 -20.019054 6.378076 -0.940771 -19.411202 -7.229096 16.180565 25.393590 1.059266 18.599875 33.443505 0.000000 0.000000 0.000000 18.157634 1.146002 3.169138 -3.744945 1.088622 -5.990276 1.141298 -17.961488 50.930460 17.552559 -45.159851 27.630533 0.000000 0.000000 0.000000 0.421766 5.628259 15.219811 -8.305411 1.532281 -35.005305 -0.588838 5.706481 5.926957 -2.607054 2.227939 -15.938761 4.322003 -0.037499 7.952401 0.000000 0.000000 0.000000 2.876189 10.688046 23.109897 -55.364192 9.193545 7.540029 -38.000664 -44.246116 0.030308 1.257949 1.674460 0.015217 1.255450 1.674557 0.000000 0.000000 0.000000 0.000000 0.000000 0.000000 0.000000 1.295432 -14.226143 19.855950 67.211622 -2.976952 -11.648372 -2.696016 52.134194 -0.131408 -1.107875 0.055823 -0.065819 -1.111976 0.054714 -0.000000 0.000000 0.000000 0.000000 0.000000 0.000000 0.000000 
-1.733334 17.221061 24.653745 1.639397 -1.294692 3.326876 -17.927530 -10.549712 -19.904631 6.169922 -0.955924 -19.491808 -7.163346 16.542705 26.353919 0.900191 18.282396 32.159603 0.000000 0.000000 0.000000 18.348652 1.161446 3.608160 -3.939898 1.218986 -5.966351 0.862086 -17.337810 50.818647 17.053512 -45.665985 29.157012 0.000000 0.000000 0.000000 0.149402 5.490035 14.867942 -7.831395 1.571819 -34.730475 -0.756383 5.674996 5.699490 -2.698581 2.298393 -15.729303 4.466417 -0.031390 8.007467 0.000000 0.000000 0.000000 2.641742 10.728873 23.054919 -56.008987 9.214806 7.014652 -37.174567 -43.767097 0.035942 1.184609 1.680541 0.018035 1.182027 1.680641 0.000000 0.000000 0.000000 0.000000 0.000000 0.000000 0.000000 1.421177 -14.332360 19.820959 66.946550 -3.019531 -11.615548 -3.253965 51.240117 -0.127623 -1.050294 -0.009566 -0.063918 -1.054181 -0.010642 -0.000000 0.000000 0.000000 0.000000 0.000000 0.000000 0.000000 
-1.727667 17.243204 24.829112 1.761866 -1.741067 3.377778 -17.755977 -10.315025 -19.772114 5.984260 -0.985260 -19.578150 -7.065612 16.883694 27.259077 0.752242 17.970634 30.903581 0.000000 0.000000 0.000000 18.532716 1.245174 4.029552 -4.090680 1.426011 -5.923444 0.609475 -16.670741 50.750479 16.549694 -46.098756 30.731260 0.000000 0.000000 0.000000 -0.072796 5.348663 14.542152 -7.327179 1.607197 -34.374297 -1.033022 5.669653 5.419006 -2.790218 2.401049 -15.532956 4.649123 -0.020207 8.052531 0.000000 0.000000 0.000000 2.386598 10.824509 22.994622 -56.672400 9.224800 6.531060 -36.066822 -43.540023 0.043015 1.084432 1.699620 0.021574 1.081722 1.699708 0.000000 0.000000 0.000000 0.000000 0.000000 0.000000 0.000000 1.463025 -14.507110 19.715342 66.667456 -3.014941 -11.666762 -4.163334 50.470511 -0.125677 -1.000785 -0.074602 -0.062941 -1.004528 -0.075680 -0.000000 0.000000 0.000000 0.000000 0.000000 0.000000 0.000000 
